<svg width="110" height="24" viewBox="0 0 110 24" fill="none" xmlns="http://www.w3.org/2000/svg">
<path d="M0 0.822792C0 0.368376 0.369568 -0.00293077 0.822945 0.027776C7.0665 0.450646 12 5.6492 12 12C12 18.3508 7.0665 23.5494 0.822946 23.9722C0.369569 24.0029 0 23.6316 0 23.1772V0.822792Z" fill="black"/>
<path d="M24 0.822792C24 0.368376 23.6304 -0.00293076 23.1771 0.0277758C16.9335 0.450645 12 5.6492 12 12C12 18.3508 16.9335 23.5494 23.1771 23.9722C23.6304 24.0029 24 23.6316 24 23.1772V0.822792Z" fill="#D7A8A0"/>
<path d="M42.9688 8.63281L42.6016 7.5625C42.4297 7.09896 42.2812 6.76823 42.1562 6.57031C42.0365 6.3724 41.8854 6.22917 41.7031 6.14062C41.474 6.04688 41.1979 5.98698 40.875 5.96094V5.85156H44.875V5.96094C44.4062 5.96615 44.0781 6.01302 43.8906 6.10156C43.7031 6.1849 43.6094 6.32031 43.6094 6.50781C43.6094 6.66406 43.6458 6.84115 43.7188 7.03906L46.6172 15.6406L49.3359 7.64062C49.4401 7.33333 49.4922 7.08854 49.4922 6.90625C49.4922 6.60938 49.3672 6.38542 49.1172 6.23438C48.8724 6.08333 48.4766 5.99219 47.9297 5.96094V5.85156H51.5156V5.96094C51.0417 6.01823 50.6745 6.16927 50.4141 6.41406C50.1589 6.65885 49.9167 7.09635 49.6875 7.72656L46.2812 17.6562H46.0547L43.1406 9.14844L40.2188 17.6562H40.0078L36.5391 7.5625C36.3099 6.90104 36.099 6.48177 35.9062 6.30469C35.7135 6.1224 35.3516 6.00781 34.8203 5.96094V5.85156H38.8047V5.96094C38.3359 5.96615 38.0078 6.01302 37.8203 6.10156C37.638 6.1849 37.5469 6.32031 37.5469 6.50781C37.5469 6.63802 37.5833 6.8151 37.6562 7.03906L40.5547 15.6562L42.9688 8.63281ZM53.7812 17.6562C52.7708 17.6562 51.9297 17.2995 51.2578 16.5859C50.5911 15.8672 50.2578 14.9141 50.2578 13.7266C50.2578 12.5651 50.6042 11.5964 51.2969 10.8203C51.9948 10.0443 52.8698 9.65625 53.9219 9.65625C54.8281 9.65625 55.5469 9.91406 56.0781 10.4297C56.6094 10.9453 56.8776 11.6536 56.8828 12.5547H51.3828C51.362 12.8776 51.3516 13.0651 51.3516 13.1172C51.3516 14.237 51.6328 15.1432 52.1953 15.8359C52.763 16.5286 53.474 16.875 54.3281 16.875C54.8802 16.875 55.3958 16.7109 55.875 16.3828C56.3542 16.0495 56.7656 15.5729 57.1094 14.9531L57.2188 15.0234C56.8958 15.8568 56.4245 16.5052 55.8047 16.9688C55.1849 17.4271 54.5104 17.6562 53.7812 17.6562ZM51.4141 12.2969H55.2891C55.4505 12.2969 55.5573 12.2682 55.6094 12.2109C55.6615 12.1536 55.6875 12.0391 55.6875 11.8672C55.6875 11.3255 55.5182 10.862 55.1797 10.4766C54.8464 10.0911 54.3906 9.89844 53.8125 9.89844C53.1979 9.89844 52.6745 10.1094 52.2422 10.5312C51.8099 10.9531 51.5339 11.5417 51.4141 12.2969ZM57.6016 17.5V17.3906C58.0911 17.3594 58.401 17.3021 58.5312 17.2188C58.6667 17.1302 58.7344 16.9297 58.7344 16.6172V7.77344C58.7344 7.26823 58.7083 6.90104 58.6562 6.67188C58.6094 6.44271 58.5182 6.27604 58.3828 6.17188C58.2526 6.0625 58.0339 5.98698 57.7266 5.94531V5.85156C58.4974 5.75781 59.2057 5.51302 59.8516 5.11719H59.9375C59.8698 5.61719 59.8359 6.5026 59.8359 7.77344V16.6172C59.8359 16.9297 59.9036 17.1302 60.0391 17.2188C60.1745 17.3021 60.487 17.3594 60.9766 17.3906V17.5H57.6016ZM61.3359 17.5V17.3906C61.8255 17.3594 62.1354 17.3021 62.2656 17.2188C62.401 17.1302 62.4688 16.9297 62.4688 16.6172V7.77344C62.4688 7.26823 62.4427 6.90104 62.3906 6.67188C62.3438 6.44271 62.2526 6.27604 62.1172 6.17188C61.987 6.0625 61.7682 5.98698 61.4609 5.94531V5.85156C62.2318 5.75781 62.9401 5.51302 63.5859 5.11719H63.6719C63.6042 5.61719 63.5703 6.5026 63.5703 7.77344V16.6172C63.5703 16.9297 63.638 17.1302 63.7734 17.2188C63.9089 17.3021 64.2214 17.3594 64.7109 17.3906V17.5H61.3359ZM65.3047 17.5V17.3906C65.862 17.3594 66.2214 17.2943 66.3828 17.1953C66.5495 17.0911 66.6328 16.8828 66.6328 16.5703V6.78125C66.6328 6.46875 66.5495 6.26302 66.3828 6.16406C66.2214 6.0599 65.862 5.99219 65.3047 5.96094V5.85156H68.9844C70.4219 5.85156 71.5234 6.11979 72.2891 6.65625C73.0547 7.19271 73.4375 7.94792 73.4375 8.92188C73.4375 10 73.0052 10.8359 72.1406 11.4297C71.276 12.0182 70.0443 12.3125 68.4453 12.3125V12.125C70.9089 11.9844 72.1406 11.0026 72.1406 9.17969C72.1406 8.20573 71.8411 7.45052 71.2422 6.91406C70.6432 6.3776 69.7891 6.10938 68.6797 6.10938H67.8672V16.5547C67.8672 16.6953 67.8776 16.8073 67.8984 16.8906C67.9245 16.974 67.9688 17.0495 68.0312 17.1172C68.0938 17.1797 68.1927 17.2292 68.3281 17.2656C68.4635 17.2969 68.625 17.3229 68.8125 17.3438C69.0052 17.3594 69.2604 17.375 69.5781 17.3906V17.5H65.3047ZM78.4297 17.625C78.0651 17.625 77.8073 17.5104 77.6562 17.2812C77.5052 17.0521 77.4245 16.7188 77.4141 16.2812C76.9818 16.7448 76.5755 17.0859 76.1953 17.3047C75.8203 17.5182 75.4323 17.625 75.0312 17.625C74.5521 17.625 74.1562 17.4792 73.8438 17.1875C73.5365 16.8958 73.3828 16.5208 73.3828 16.0625C73.3828 15.6615 73.5391 15.3255 73.8516 15.0547C74.1693 14.7786 74.7292 14.5208 75.5312 14.2812L77.4141 13.7266V12.0469C77.4141 11.526 77.3021 11.125 77.0781 10.8438C76.8542 10.5573 76.526 10.4141 76.0938 10.4141C75.7708 10.4141 75.4062 10.5156 75 10.7188C74.5938 10.9167 74.3906 11.0964 74.3906 11.2578C74.3906 11.2734 74.4219 11.3854 74.4844 11.5938C74.5521 11.8021 74.5859 11.9479 74.5859 12.0312C74.5859 12.1875 74.5365 12.3125 74.4375 12.4062C74.3438 12.4948 74.2161 12.5391 74.0547 12.5391C73.9141 12.5391 73.7969 12.5 73.7031 12.4219C73.6094 12.3438 73.5625 12.2396 73.5625 12.1094C73.5625 11.9375 73.6354 11.7344 73.7812 11.5C73.9323 11.2604 74.1354 11.0312 74.3906 10.8125C75.2188 10.0885 75.987 9.72656 76.6953 9.72656C77.2682 9.72656 77.7161 9.90625 78.0391 10.2656C78.362 10.6198 78.5234 11.1276 78.5234 11.7891V16.2188C78.5234 16.7448 78.7083 17.0078 79.0781 17.0078C79.3698 17.0078 79.6589 16.7943 79.9453 16.3672L80.0391 16.4297C79.6328 17.2266 79.0964 17.625 78.4297 17.625ZM74.4922 15.7578C74.4922 16.1172 74.599 16.4036 74.8125 16.6172C75.0312 16.8307 75.3177 16.9375 75.6719 16.9375C76.1979 16.9375 76.7786 16.6354 77.4141 16.0312V13.9453L75.8672 14.4453C75.3776 14.5964 75.026 14.7734 74.8125 14.9766C74.599 15.1797 74.4922 15.4401 74.4922 15.7578ZM82.8359 17.6562C82.3307 17.6562 81.9297 17.5104 81.6328 17.2188C81.3359 16.9271 81.1875 16.5026 81.1875 15.9453V10.4609H80.2734V10.2656C80.7214 10.1042 81.0781 9.85417 81.3438 9.51562C81.6146 9.17708 81.8646 8.70312 82.0938 8.09375H82.2891V9.82031H84.9141L84.7969 10.4609H82.2891V15.7109C82.2891 16.5859 82.7109 17.0234 83.5547 17.0234C84.0547 17.0234 84.5339 16.8724 84.9922 16.5703L85.0703 16.6719C84.7526 16.9844 84.3958 17.2266 84 17.3984C83.6094 17.5703 83.2214 17.6562 82.8359 17.6562ZM85.3359 17.5V17.3906C85.7995 17.3594 86.0938 17.3021 86.2188 17.2188C86.3438 17.1302 86.4062 16.9297 86.4062 16.6172V7.77344C86.4062 7.0599 86.349 6.59375 86.2344 6.375C86.125 6.15104 85.8672 6.00781 85.4609 5.94531V5.85156C86.1849 5.75781 86.8724 5.51302 87.5234 5.11719H87.6016C87.5391 5.58073 87.5078 6.46615 87.5078 7.77344V11.1016C88.0182 10.6224 88.4818 10.2734 88.8984 10.0547C89.3203 9.83594 89.7786 9.72656 90.2734 9.72656C90.9297 9.72656 91.4375 9.9401 91.7969 10.3672C92.1615 10.7891 92.3438 11.4062 92.3438 12.2188V16.6172C92.3438 16.9297 92.4062 17.1302 92.5312 17.2188C92.6562 17.3021 92.9505 17.3594 93.4141 17.3906V17.5H90.2266V17.3906C90.6536 17.3594 90.9271 17.2995 91.0469 17.2109C91.1719 17.1224 91.2344 16.9245 91.2344 16.6172V12.4297C91.2344 11.7682 91.0833 11.2682 90.7812 10.9297C90.4844 10.5859 90.0599 10.4141 89.5078 10.4141C88.9297 10.4141 88.263 10.7057 87.5078 11.2891V16.6172C87.5078 16.9245 87.5677 17.1224 87.6875 17.2109C87.8125 17.2995 88.0885 17.3594 88.5156 17.3906V17.5H85.3359ZM100.648 17.5V17.3906C101.122 17.3854 101.453 17.3411 101.641 17.2578C101.833 17.1693 101.93 17.0312 101.93 16.8438C101.93 16.7292 101.888 16.5521 101.805 16.3125L100.586 12.9219H96.5234L95.5312 15.7109C95.4219 16.0026 95.3672 16.2578 95.3672 16.4766C95.3672 16.7682 95.4792 16.987 95.7031 17.1328C95.9271 17.2734 96.2917 17.3594 96.7969 17.3906V17.5H93.4219V17.3906C93.8438 17.3333 94.1875 17.1771 94.4531 16.9219C94.724 16.6615 94.9714 16.2292 95.1953 15.625L98.3281 6.92188L98.0391 6.1875C98.5547 6.05729 98.9349 5.83854 99.1797 5.53125H99.2734C99.3568 5.91667 99.5547 6.53646 99.8672 7.39062L102.922 15.7891C103.094 16.2526 103.24 16.5833 103.359 16.7812C103.484 16.9792 103.638 17.1224 103.82 17.2109C104.029 17.3047 104.299 17.3646 104.633 17.3906V17.5H100.648ZM96.6328 12.6328H100.477L98.5547 7.25781L96.6328 12.6328ZM104.789 17.5V17.3906C105.372 17.3594 105.747 17.2943 105.914 17.1953C106.081 17.0911 106.164 16.8828 106.164 16.5703V6.78125C106.164 6.46875 106.081 6.26302 105.914 6.16406C105.747 6.0599 105.372 5.99219 104.789 5.96094V5.85156H108.789V5.96094C108.206 5.99219 107.831 6.0599 107.664 6.16406C107.497 6.26302 107.414 6.46875 107.414 6.78125V16.5703C107.414 16.8828 107.497 17.0911 107.664 17.1953C107.831 17.2943 108.206 17.3594 108.789 17.3906V17.5H104.789Z" fill="#1E2E35"/>
</svg>
